<?xml version="1.0" encoding="UTF-8" standalone="no"?>
<svg
   xmlns:dc="http://purl.org/dc/elements/1.1/"
   xmlns:cc="http://creativecommons.org/ns#"
   xmlns:rdf="http://www.w3.org/1999/02/22-rdf-syntax-ns#"
   xmlns:svg="http://www.w3.org/2000/svg"
   xmlns="http://www.w3.org/2000/svg"
   xmlns:sodipodi="http://sodipodi.sourceforge.net/DTD/sodipodi-0.dtd"
   xmlns:inkscape="http://www.inkscape.org/namespaces/inkscape"
   height="18"
   viewBox="0 0 18 18"
   width="18"
   version="1.1"
   id="svg6"
   sodipodi:docname="ic_open_in_browser_black_24px_active.svg"
   style="fill:#000000"
   inkscape:version="0.92.1 r15371">
  <metadata
     id="metadata12">
    <rdf:RDF>
      <cc:Work
         rdf:about="">
        <dc:format>image/svg+xml</dc:format>
        <dc:type
           rdf:resource="http://purl.org/dc/dcmitype/StillImage" />
        <dc:title />
      </cc:Work>
    </rdf:RDF>
  </metadata>
  <defs
     id="defs10" />
  <sodipodi:namedview
     pagecolor="#ffffff"
     bordercolor="#666666"
     borderopacity="1"
     objecttolerance="10"
     gridtolerance="10"
     guidetolerance="10"
     inkscape:pageopacity="0"
     inkscape:pageshadow="2"
     inkscape:window-width="1920"
     inkscape:window-height="1137"
     id="namedview8"
     showgrid="false"
     fit-margin-top="1"
     fit-margin-left="0"
     fit-margin-right="0"
     fit-margin-bottom="1"
     inkscape:zoom="27.812867"
     inkscape:cx="0.73167057"
     inkscape:cy="10.904065"
     inkscape:window-x="1432"
     inkscape:window-y="-8"
     inkscape:window-maximized="1"
     inkscape:current-layer="svg6" />
  <path
     d="M -3,-3 H 21 V 21 H -3 Z"
     id="path2"
     inkscape:connector-curvature="0"
     style="fill:none" />
  <path
     style="fill:#1e88e5;fill-opacity:1;stroke:#1e88e5;stroke-width:0;stroke-miterlimit:4;stroke-dasharray:none;stroke-opacity:1"
     d="m 1.4970045,16.913728 c -0.335692,-0.09042 -0.624287,-0.263284 -0.891372,-0.533933 -0.29479,-0.298725 -0.423321,-0.521997 -0.521512,-0.905919 -0.0695,-0.271763 -0.07112,-0.418507 -0.07112,-6.4499233 0,-4.2225133 0.01214,-6.2392157 0.03843,-6.3851756 0.12635,-0.7014328 0.703094,-1.3319016 1.417731,-1.5497954 0.205997,-0.062809 0.545741,-0.065776 7.532485,-0.065776 h 7.3167575 l 0.253175,0.079656 c 0.609596,0.1917961 1.110905,0.686132 1.320368,1.302002 l 0.08037,0.2362982 0.0096,6.246565 c 0.01056,6.8876971 0.02208,6.5123161 -0.214519,6.9948331 -0.150109,0.306133 -0.537937,0.703844 -0.840674,0.862096 -0.429845,0.224697 -0.426265,0.224407 -2.773128,0.224407 h -2.131744 v -0.970774 -0.970773 h 1.99548 1.995479 V 10.011852 4.9961874 H 9.0016465 1.9905025 v 5.0156646 5.015664 h 1.99548 1.995479 v 0.970773 0.970774 l -2.148286,-0.0024 c -1.72805,-0.0019 -2.185039,-0.01226 -2.336167,-0.05297 z"
     id="path4485"
     inkscape:connector-curvature="0" />
  <path
     style="fill:#1e88e5;fill-opacity:1;stroke:#1e88e5;stroke-width:0;stroke-miterlimit:4;stroke-dasharray:none;stroke-opacity:1"
     d="m 8.0304507,13.984833 v -2.98423 H 6.5293875 5.0283244 l 1.98645,-1.9864504 1.98645,-1.98645 1.9864496,1.98645 1.98645,1.9864504 H 11.473061 9.9719981 v 2.98423 2.98423 H 9.0012244 8.0304507 Z"
     id="path4487"
     inkscape:connector-curvature="0" />
</svg>
